<?xml version="1.0" standalone="no"?>
<!DOCTYPE svg PUBLIC "-//W3C//DTD SVG 20010904//EN"
 "http://www.w3.org/TR/2001/REC-SVG-20010904/DTD/svg10.dtd">
<svg version="1.0" xmlns="http://www.w3.org/2000/svg"
 width="60%" height="55%" viewBox="0 0 602.000000 355.000000"
 preserveAspectRatio="xMidYMid meet">

<g transform="translate(0.000000,355.000000) scale(0.100000,-0.100000)"
fill="#ffff" stroke="none">
<path d="M3335 2163 c-39 -10 -43 -21 -38 -103 4 -57 2 -84 -7 -95 -28 -33 2
-39 212 -39 140 -1 207 -5 215 -13 10 -9 13 -146 13 -601 1 -524 2 -591 16
-596 9 -3 62 -6 119 -6 96 0 105 2 120 23 14 19 16 87 14 605 l-1 584 207 1
c247 2 235 -4 235 128 0 66 -4 91 -16 103 -14 14 -76 16 -542 15 -290 -1 -536
-4 -547 -6z"/>
<path d="M4608 2163 c-25 -4 -28 -9 -28 -43 0 -21 5 -40 10 -42 6 -2 13 -19
15 -38 3 -19 9 -36 15 -38 5 -2 10 -24 10 -48 0 -24 4 -44 10 -44 5 0 13 -18
16 -40 4 -22 10 -40 15 -40 5 0 9 -11 9 -25 0 -14 4 -25 10 -25 5 0 12 -16 16
-35 3 -19 10 -35 15 -35 5 0 9 -18 9 -41 0 -23 7 -47 15 -55 8 -9 15 -29 15
-45 0 -16 5 -29 10 -29 6 0 10 -13 10 -29 0 -16 7 -34 15 -41 8 -7 13 -15 10
-19 -2 -4 3 -20 11 -35 7 -16 14 -41 14 -56 0 -15 7 -33 15 -40 8 -7 15 -27
15 -46 0 -18 5 -36 10 -39 6 -3 10 -17 10 -31 0 -14 7 -32 15 -40 8 -9 15 -24
15 -34 0 -10 5 -22 10 -25 6 -3 10 -24 10 -46 0 -21 4 -39 10 -39 5 0 12 -16
16 -35 3 -19 10 -38 15 -41 5 -3 9 -21 9 -40 0 -19 5 -34 10 -34 6 0 10 -8 10
-17 0 -10 7 -31 15 -47 8 -15 15 -37 15 -48 0 -42 20 -48 172 -48 129 0 146 2
165 19 19 18 68 144 76 196 2 11 8 29 14 40 12 23 60 170 65 200 1 11 6 22 9
25 7 5 67 187 72 217 2 10 8 27 14 38 12 23 60 170 65 200 1 11 6 22 9 25 7 6
68 188 72 215 2 11 8 29 14 40 6 11 25 64 43 118 24 75 29 102 21 110 -8 8
-49 12 -110 12 -115 0 -151 -13 -151 -56 0 -15 -4 -31 -10 -34 -5 -3 -10 -14
-10 -23 0 -9 -7 -30 -15 -46 -8 -15 -15 -39 -15 -52 0 -24 -2 -30 -33 -92 -9
-19 -17 -44 -17 -57 0 -13 -4 -27 -10 -30 -5 -3 -10 -19 -10 -34 0 -16 -7 -34
-15 -41 -9 -7 -15 -29 -15 -51 0 -22 -4 -39 -10 -39 -5 0 -10 -11 -10 -24 0
-14 -7 -31 -15 -40 -8 -8 -15 -26 -15 -40 0 -14 -4 -27 -9 -30 -4 -3 -11 -24
-15 -46 -3 -22 -11 -40 -16 -40 -6 0 -10 -18 -10 -39 0 -22 -4 -43 -10 -46 -5
-3 -10 -17 -10 -30 0 -13 -7 -30 -15 -39 -8 -8 -15 -28 -15 -45 0 -17 -4 -31
-10 -31 -5 0 -10 -7 -10 -14 0 -8 -11 -27 -25 -42 -14 -15 -25 -33 -25 -40 0
-50 -32 36 -158 424 -79 240 -148 448 -154 462 -6 14 -12 27 -12 30 -2 8 -27
93 -40 130 -6 19 -23 40 -36 47 -24 12 -140 15 -202 6z"/>
<path d="M1655 1880 c-4 -7 2 -9 18 -5 60 15 121 -58 98 -118 -11 -28 -61 -58
-127 -76 -44 -12 -70 -34 -59 -50 3 -6 37 -29 76 -52 96 -56 209 -78 312 -61
113 19 273 107 253 140 -3 5 -37 19 -75 32 -82 26 -115 56 -115 105 0 84 115
113 154 39 8 -13 15 -22 17 -20 7 6 -18 49 -36 63 -20 16 -86 16 -114 1 -12
-6 -30 -22 -40 -34 -45 -58 -158 -54 -224 7 -36 33 -49 39 -87 39 -25 0 -48
-5 -51 -10z m205 -306 c0 -9 -5 -14 -12 -12 -18 6 -21 28 -4 28 9 0 16 -7 16
-16z m118 -2 c2 -7 -3 -12 -12 -12 -9 0 -16 7 -16 16 0 17 22 14 28 -4z"/>
<path d="M1662 1834 c-24 -17 -30 -62 -10 -82 18 -18 53 -15 71 6 22 24 21 29
-3 35 -14 3 -20 14 -20 31 0 30 -7 32 -38 10z"/>
<path d="M2084 1825 c-35 -53 20 -111 66 -70 26 23 25 45 0 45 -15 0 -20 7
-20 25 0 33 -25 33 -46 0z"/>
<path d="M1524 1582 c-6 -4 -30 -35 -52 -70 -43 -66 -81 -194 -68 -227 13 -34
29 2 34 72 4 74 15 103 37 103 12 0 15 -15 16 -62 2 -119 37 -204 70 -171 8 8
5 23 -10 58 -30 67 -48 162 -34 176 17 17 31 3 64 -64 46 -95 112 -153 134
-117 4 6 -23 41 -58 78 -62 65 -87 99 -87 121 0 19 27 12 58 -14 39 -33 130
-75 163 -75 28 0 55 23 45 38 -3 6 -23 13 -43 16 -42 8 -184 85 -224 122 -28
26 -29 27 -45 16z"/>
<path d="M2231 1557 c-31 -34 -152 -98 -221 -118 -60 -17 -79 -44 -37 -54 27
-7 130 31 190 71 21 13 42 22 46 19 19 -11 -5 -51 -71 -121 -65 -68 -77 -94
-44 -94 22 0 83 74 116 140 28 56 51 73 65 50 9 -15 -12 -114 -35 -166 -21
-45 -21 -74 -1 -74 29 0 61 114 61 215 l0 39 22 -22 c17 -17 23 -36 26 -89 4
-71 14 -95 32 -77 8 8 6 33 -4 82 -18 88 -38 130 -85 183 l-36 41 -24 -25z"/>
</g>
</svg>
